<svg width="133" height="32" viewBox="0 0 133 32" fill="none" xmlns="http://www.w3.org/2000/svg">
  <path d="M23.3932 20.2329C23.3222 20.0625 17.4812 8.49925 17.3854 8.33983C17.0783 7.6038 16.5385 6.95714 15.7967 6.52303C13.9818 5.46026 11.6485 6.0685 10.5849 7.88157C9.85522 9.12505 9.91281 10.6125 10.6065 11.767C10.6775 11.9374 16.2681 23.0051 16.3638 23.1645C16.435 23.3352 16.5185 23.5007 16.6143 23.6601C16.9212 24.3964 17.4612 25.0428 18.203 25.4772C20.0178 26.5397 22.3512 25.9312 23.4147 24.1184C24.1442 22.8749 24.0869 21.3877 23.3932 20.2329Z" fill="#1570EF"/>
  <path d="M16.6482 12.408C17.2875 11.7273 17.6796 10.8126 17.6796 9.80556C17.6796 7.70418 15.9745 6.00046 13.8711 6.00046C12.5774 6.00046 11.4353 6.64515 10.7467 7.63018C10.6212 7.76391 1.13693 19.4409 1.03149 19.5916C0.392288 20.2723 0 21.1873 0 22.1943C0 24.2956 1.70529 25.9991 3.80879 25.9991C5.10232 25.9991 6.24443 25.3542 6.93283 24.3694C7.05855 24.2359 16.5427 12.5587 16.6482 12.408Z" fill="#1570EF"/>
  <path d="M32.9684 12.4082C33.6078 11.7275 33.9999 10.8127 33.9999 9.80574C33.9999 7.70436 32.2947 6.00065 30.1913 6.00065C28.8976 6.00065 27.7555 6.64533 27.0669 7.63037C26.9414 7.76409 17.4573 19.4411 17.3518 19.5918C16.7124 20.2725 16.3203 21.1874 16.3203 22.1944C16.3203 24.2958 18.0255 25.9993 20.1289 25.9993C21.4226 25.9993 22.5647 25.3544 23.2531 24.3696C23.3788 24.2361 32.8629 12.5588 32.9684 12.4082Z" fill="#1570EF"/>
  <path d="M57.4375 12.1307C57.3466 11.3239 56.9716 10.6989 56.3125 10.2557C55.6534 9.80682 54.8239 9.58239 53.8239 9.58239C53.108 9.58239 52.4886 9.69602 51.9659 9.92329C51.4432 10.1449 51.0369 10.4517 50.7472 10.8438C50.4631 11.2301 50.321 11.6705 50.321 12.1648C50.321 12.5795 50.4176 12.9375 50.6108 13.2386C50.8097 13.5398 51.0682 13.7926 51.3864 13.9972C51.7102 14.196 52.0568 14.3636 52.4261 14.5C52.7955 14.6307 53.1506 14.7386 53.4915 14.8239L55.196 15.267C55.7528 15.4034 56.3239 15.5881 56.9091 15.821C57.4943 16.054 58.0369 16.3608 58.5369 16.7415C59.0369 17.1222 59.4403 17.5938 59.7472 18.1562C60.0597 18.7188 60.2159 19.392 60.2159 20.1761C60.2159 21.1648 59.9602 22.0426 59.4489 22.8097C58.9432 23.5767 58.2074 24.1818 57.2415 24.625C56.2813 25.0682 55.1193 25.2898 53.7557 25.2898C52.4489 25.2898 51.3182 25.0824 50.3636 24.6676C49.4091 24.2528 48.6619 23.6648 48.1222 22.9034C47.5824 22.1364 47.2841 21.2273 47.2273 20.1761H49.8693C49.9205 20.8068 50.125 21.3324 50.483 21.7528C50.8466 22.1676 51.3097 22.4773 51.8722 22.6818C52.4403 22.8807 53.0625 22.9801 53.7386 22.9801C54.483 22.9801 55.1449 22.8636 55.7244 22.6307C56.3097 22.392 56.7699 22.0625 57.1051 21.642C57.4403 21.2159 57.608 20.7187 57.608 20.1506C57.608 19.6335 57.4602 19.2102 57.1648 18.8807C56.875 18.5511 56.4801 18.2784 55.9801 18.0625C55.4858 17.8466 54.9261 17.6562 54.3011 17.4915L52.2386 16.929C50.8409 16.5483 49.733 15.9886 48.9148 15.25C48.1023 14.5114 47.696 13.5341 47.696 12.3182C47.696 11.3125 47.9688 10.4347 48.5142 9.68466C49.0597 8.93466 49.7983 8.35227 50.7301 7.9375C51.6619 7.51705 52.7131 7.30682 53.8835 7.30682C55.0653 7.30682 56.108 7.5142 57.0114 7.92898C57.9205 8.34375 58.6364 8.91477 59.1591 9.64204C59.6818 10.3636 59.9545 11.1932 59.9773 12.1307H57.4375ZM65.7067 17.2273V25H63.1584V7.54545H65.6726V14.0398H65.8345C66.1413 13.3352 66.6101 12.7756 67.2408 12.3608C67.8714 11.946 68.6953 11.7386 69.7124 11.7386C70.6101 11.7386 71.3942 11.9233 72.0646 12.2926C72.7408 12.6619 73.2635 13.2131 73.6328 13.946C74.0078 14.6733 74.1953 15.5824 74.1953 16.6733V25H71.647V16.9801C71.647 16.0199 71.3999 15.2756 70.9055 14.7472C70.4112 14.2131 69.7237 13.946 68.843 13.946C68.2408 13.946 67.701 14.0739 67.2237 14.3295C66.7521 14.5852 66.38 14.9602 66.1072 15.4545C65.8402 15.9432 65.7067 16.5341 65.7067 17.2273ZM83.2379 25.2642C81.9482 25.2642 80.8374 24.9886 79.9055 24.4375C78.9794 23.8807 78.2635 23.0994 77.7578 22.0938C77.2578 21.0824 77.0078 19.8977 77.0078 18.5398C77.0078 17.1989 77.2578 16.017 77.7578 14.9943C78.2635 13.9716 78.968 13.1733 79.8714 12.5994C80.7805 12.0256 81.843 11.7386 83.0589 11.7386C83.7976 11.7386 84.5135 11.8608 85.2067 12.1051C85.8999 12.3494 86.522 12.733 87.0732 13.2557C87.6243 13.7784 88.0589 14.4574 88.3771 15.2926C88.6953 16.1222 88.8544 17.1307 88.8544 18.3182V19.2216H78.4482V17.3125H86.3572C86.3572 16.642 86.2209 16.0483 85.9482 15.5312C85.6754 15.0085 85.2919 14.5966 84.7976 14.2955C84.3089 13.9943 83.7351 13.8438 83.076 13.8438C82.3601 13.8438 81.7351 14.0199 81.201 14.3722C80.6726 14.7187 80.2635 15.1733 79.9737 15.7358C79.6896 16.2926 79.5476 16.8977 79.5476 17.5511V19.0426C79.5476 19.9176 79.701 20.6619 80.0078 21.2756C80.3203 21.8892 80.755 22.358 81.3118 22.6818C81.8686 23 82.5192 23.1591 83.2635 23.1591C83.7464 23.1591 84.1868 23.0909 84.5845 22.9545C84.9822 22.8125 85.326 22.6023 85.6158 22.3239C85.9055 22.0455 86.1271 21.7017 86.2805 21.2926L88.6925 21.7273C88.4993 22.4375 88.1527 23.0597 87.6527 23.5938C87.1584 24.1222 86.5362 24.5341 85.7862 24.8295C85.0419 25.1193 84.1925 25.2642 83.2379 25.2642ZM97.3239 25.2642C96.0341 25.2642 94.9233 24.9886 93.9915 24.4375C93.0653 23.8807 92.3494 23.0994 91.8438 22.0938C91.3438 21.0824 91.0938 19.8977 91.0938 18.5398C91.0938 17.1989 91.3438 16.017 91.8438 14.9943C92.3494 13.9716 93.054 13.1733 93.9574 12.5994C94.8665 12.0256 95.929 11.7386 97.1449 11.7386C97.8835 11.7386 98.5994 11.8608 99.2926 12.1051C99.9858 12.3494 100.608 12.733 101.159 13.2557C101.71 13.7784 102.145 14.4574 102.463 15.2926C102.781 16.1222 102.94 17.1307 102.94 18.3182V19.2216H92.5341V17.3125H100.443C100.443 16.642 100.307 16.0483 100.034 15.5312C99.7614 15.0085 99.3778 14.5966 98.8835 14.2955C98.3949 13.9943 97.821 13.8438 97.1619 13.8438C96.446 13.8438 95.821 14.0199 95.2869 14.3722C94.7585 14.7187 94.3494 15.1733 94.0597 15.7358C93.7756 16.2926 93.6335 16.8977 93.6335 17.5511V19.0426C93.6335 19.9176 93.7869 20.6619 94.0938 21.2756C94.4062 21.8892 94.8409 22.358 95.3977 22.6818C95.9545 23 96.6051 23.1591 97.3494 23.1591C97.8324 23.1591 98.2727 23.0909 98.6705 22.9545C99.0682 22.8125 99.4119 22.6023 99.7017 22.3239C99.9915 22.0455 100.213 21.7017 100.366 21.2926L102.778 21.7273C102.585 22.4375 102.239 23.0597 101.739 23.5938C101.244 24.1222 100.622 24.5341 99.8722 24.8295C99.1278 25.1193 98.2784 25.2642 97.3239 25.2642ZM105.768 25V11.9091H108.231V13.9886H108.367C108.606 13.2841 109.026 12.7301 109.629 12.3267C110.237 11.9176 110.924 11.7131 111.691 11.7131C111.85 11.7131 112.038 11.7187 112.254 11.7301C112.475 11.7415 112.648 11.7557 112.773 11.7727V14.2102C112.671 14.1818 112.489 14.1506 112.228 14.1165C111.967 14.0767 111.705 14.0568 111.444 14.0568C110.842 14.0568 110.305 14.1847 109.833 14.4403C109.367 14.6903 108.998 15.0398 108.725 15.4886C108.452 15.9318 108.316 16.4375 108.316 17.0057V25H105.768ZM117.527 7.54545V25H114.979V7.54545H117.527ZM122.566 29.9091C122.185 29.9091 121.839 29.8778 121.526 29.8153C121.214 29.7585 120.981 29.696 120.827 29.6278L121.441 27.5398C121.907 27.6648 122.322 27.7188 122.685 27.7017C123.049 27.6847 123.37 27.5483 123.648 27.2926C123.933 27.0369 124.183 26.6193 124.398 26.0398L124.714 25.1705L119.924 11.9091H122.651L125.967 22.0682H126.103L129.418 11.9091H132.154L126.759 26.7472C126.509 27.429 126.191 28.0057 125.805 28.4773C125.418 28.9545 124.958 29.3125 124.424 29.5511C123.89 29.7898 123.271 29.9091 122.566 29.9091Z" fill="#101828"/>
</svg>
