<svg xmlns="http://www.w3.org/2000/svg" viewBox="0 0 35 32" fill="none">
  <path d="M23.3932 20.2329C23.3222 20.0625 17.4812 8.49925 17.3854 8.33983C17.0783 7.6038 16.5385 6.95714 15.7967 6.52303C13.9818 5.46026 11.6485 6.0685 10.5849 7.88157C9.85522 9.12505 9.91281 10.6125 10.6065 11.767C10.6775 11.9374 16.2681 23.0051 16.3638 23.1645C16.435 23.3352 16.5185 23.5007 16.6143 23.6601C16.9212 24.3964 17.4612 25.0428 18.203 25.4772C20.0178 26.5397 22.3512 25.9312 23.4147 24.1184C24.1442 22.8749 24.0869 21.3877 23.3932 20.2329Z" fill="#1570EF"/>
  <path d="M16.6482 12.408C17.2875 11.7273 17.6796 10.8126 17.6796 9.80556C17.6796 7.70418 15.9745 6.00046 13.8711 6.00046C12.5774 6.00046 11.4353 6.64515 10.7467 7.63018C10.6212 7.76391 1.13693 19.4409 1.03149 19.5916C0.392288 20.2723 0 21.1873 0 22.1943C0 24.2956 1.70529 25.9991 3.80879 25.9991C5.10232 25.9991 6.24443 25.3542 6.93283 24.3694C7.05855 24.2359 16.5427 12.5587 16.6482 12.408Z" fill="#1570EF"/>
  <path d="M32.9684 12.4082C33.6078 11.7275 33.9999 10.8127 33.9999 9.80574C33.9999 7.70436 32.2947 6.00065 30.1913 6.00065C28.8976 6.00065 27.7555 6.64533 27.0669 7.63037C26.9414 7.76409 17.4573 19.4411 17.3518 19.5918C16.7124 20.2725 16.3203 21.1874 16.3203 22.1944C16.3203 24.2958 18.0255 25.9993 20.1289 25.9993C21.4226 25.9993 22.5647 25.3544 23.2531 24.3696C23.3788 24.2361 32.8629 12.5588 32.9684 12.4082Z" fill="#1570EF"/>
</svg>
